<?xml version="1.0" encoding="UTF-8" standalone="no"?>
<svg width="185px" height="125px" viewBox="0 0 185 125" version="1.1" xmlns="http://www.w3.org/2000/svg" xmlns:xlink="http://www.w3.org/1999/xlink" xmlns:sketch="http://www.bohemiancoding.com/sketch/ns">
    <!-- Generator: Sketch 3.1.1 (8761) - http://www.bohemiancoding.com/sketch -->
    <title>mobile_image</title>
    <desc>Created with Sketch.</desc>
    <defs></defs>
    <g id="Page-1" stroke="none" stroke-width="1" fill="none" fill-rule="evenodd" sketch:type="MSPage">
        <g id="Desktop-HD-20" sketch:type="MSArtboardGroup" transform="translate(-629.000000, -1060.000000)">
            <g id="Group" sketch:type="MSLayerGroup" transform="translate(340.000000, 1039.000000)">
                <g id="mobile_image" transform="translate(291.010000, 22.878513)" sketch:type="MSShapeGroup">
                    <g id="Layer_136" transform="translate(-0.372753, -0.373139)">
                        <g id="Group">
                            <path d="M117.796571,-0.211819251 L63.8503773,-0.211819251 C58.2639961,-0.211819251 53.735466,4.34017645 53.735466,9.9555048 L53.735466,121.796069 L127.911482,121.796069 L127.911482,9.9555048 C127.911482,4.34017645 123.382952,-0.211819251 117.796571,-0.211819251 L117.796571,-0.211819251 Z" id="Shape" fill="#E9ECEE"></path>
                            <path d="M121.168208,121.796069 L121.168208,20.1228288 L60.4787402,20.1228288 L60.4787402,121.796069" id="Shape" fill="#FFFFFF"></path>
                            <path d="M121.168208,121.796069 L61.3216495,121.796069 L61.3216495,87.9049892 L80.7085627,87.9049892 L80.7085627,60.792125 L100.938385,60.792125 L100.938385,81.1267731 L121.378935,81.1267731 L121.168208,87.9049892 L121.168208,121.796069 Z" id="Shape" fill="#FBD764"></path>
                            <path d="M53.735466,121.796069 L53.735466,9.9555048 C53.735466,4.34017645 58.2639961,-0.211819251 63.8503773,-0.211819251 L117.796571,-0.211819251 C123.382952,-0.211819251 127.911482,4.34017645 127.911482,9.9555048 L127.911482,121.796069 L53.735466,121.796069 L53.735466,121.796069 Z" id="Shape" stroke="#415FCF" stroke-width="1.54"></path>
                            <path d="M121.168208,121.796069 L121.168208,20.1228288 L60.4787402,20.1228288 L60.4787402,121.796069" id="Shape" stroke="#415FCF" stroke-width="1.54"></path>
                            <path d="M84.0801998,13.1524324 L97.5667481,13.1524324" id="Shape" stroke="#415FCF" stroke-width="1.54"></path>
                            <path d="M87.4518368,5.75418919 L94.195111,5.75418919" id="Shape" stroke="#415FCF" stroke-width="1.54"></path>
                            <path d="M-0.210727318,121.796069 L-0.210727318,91.2940972 L16.6474581,91.2940972 L16.6474581,60.792125 L36.8772806,60.792125 L36.8772806,77.7376651 L53.735466,77.7376651" id="Shape" stroke="#415FCF" stroke-width="1.54"></path>
                            <path d="M181.857675,121.796069 L181.857675,98.0723132 L161.627853,98.0723132 L161.627853,84.5158811 L148.141304,84.5158811 L148.141304,67.5703411 L128.122209,67.5703411" id="Shape" stroke="#415FCF" stroke-width="1.54"></path>
                            <rect id="Rectangle-path" stroke="#415FCF" stroke-width="1.54" x="20.2298225" y="67.7821603" width="3.37163708" height="3.38910802"></rect>
                            <rect id="Rectangle-path" stroke="#415FCF" stroke-width="1.54" x="20.2298225" y="74.5603763" width="3.37163708" height="3.38910802"></rect>
                            <rect id="Rectangle-path" stroke="#415FCF" stroke-width="1.54" x="26.9730967" y="74.5603763" width="3.37163708" height="3.38910802"></rect>
                            <rect id="Rectangle-path" stroke="#415FCF" stroke-width="1.54" x="13.4865483" y="98.2841325" width="3.37163708" height="3.38910802"></rect>
                            <rect id="Rectangle-path" stroke="#415FCF" stroke-width="1.54" x="37.0880079" y="84.7277004" width="3.37163708" height="3.38910802"></rect>
                            <rect id="Rectangle-path" stroke="#415FCF" stroke-width="1.54" x="43.8312821" y="84.7277004" width="3.37163708" height="3.38910802"></rect>
                            <rect id="Rectangle-path" stroke="#415FCF" stroke-width="1.54" x="134.865483" y="74.5603763" width="3.37163708" height="3.38910802"></rect>
                            <rect id="Rectangle-path" stroke="#415FCF" stroke-width="1.54" x="141.608757" y="74.5603763" width="3.37163708" height="3.38910802"></rect>
                            <rect id="Rectangle-path" stroke="#FFFFFF" stroke-width="1.54" fill="#FFFFFF" x="101.149112" y="88.1168084" width="3.37163708" height="3.38910802"></rect>
                            <rect id="Rectangle-path" stroke="#FFFFFF" stroke-width="1.54" fill="#FFFFFF" x="107.892387" y="88.1168084" width="3.37163708" height="3.38910802"></rect>
                            <rect id="Rectangle-path" stroke="#FFFFFF" stroke-width="1.54" fill="#FFFFFF" x="70.8043787" y="94.8950244" width="3.37163708" height="3.38910802"></rect>
                            <rect id="Rectangle-path" stroke="#FFFFFF" stroke-width="1.54" fill="#FFFFFF" x="84.2909271" y="67.7821603" width="3.37163708" height="3.38910802"></rect>
                            <rect id="Rectangle-path" stroke="#FFFFFF" stroke-width="1.54" fill="#FFFFFF" x="91.0342012" y="67.7821603" width="3.37163708" height="3.38910802"></rect>
                            <rect id="Rectangle-path" stroke="#FFFFFF" stroke-width="1.54" fill="#FFFFFF" x="114.635661" y="88.1168084" width="3.37163708" height="3.38910802"></rect>
                            <rect id="Rectangle-path" stroke="#415FCF" stroke-width="1.54" x="141.608757" y="91.5059164" width="3.37163708" height="3.38910802"></rect>
                            <rect id="Rectangle-path" stroke="#415FCF" stroke-width="1.54" x="165.210217" y="105.062348" width="3.37163708" height="3.38910802"></rect>
                            <rect id="Rectangle-path" stroke="#415FCF" stroke-width="1.54" x="171.953491" y="105.062348" width="3.37163708" height="3.38910802"></rect>
                            <rect id="Rectangle-path" stroke="#415FCF" stroke-width="1.54" x="3.37163708" y="98.2841325" width="3.37163708" height="3.38910802"></rect>
                            <rect id="Rectangle-path" stroke="#415FCF" stroke-width="1.54" x="20.2298225" y="98.2841325" width="3.37163708" height="3.38910802"></rect>
                            <path d="M121.378935,81.1267731 L100.938385,81.1267731 L100.938385,60.792125 L80.7085627,60.792125 L80.7085627,87.9049892 L61.3216495,87.9049892" id="Shape" stroke="#FBD764" stroke-width="1.54"></path>
                            <path d="M67.2220143,30.2901529 L67.2220143,50.624801 L87.4518368,50.624801 L90.8234739,54.013909 L94.195111,50.624801 L114.424934,50.624801 L114.424934,30.2901529 L67.2220143,30.2901529 Z" id="Shape" stroke="#415FCF" stroke-width="1.54" fill="#E9ECEE"></path>
                            <ellipse id="Oval" stroke="#415FCF" stroke-width="1.54" fill="#FFFFFF" cx="77.5476529" cy="40.6692962" rx="5.05745562" ry="5.08366202"></ellipse>
                            <path d="M87.4518368,35.3471622 L109.367478,35.3471622" id="Shape" stroke="#415FCF" stroke-width="1.54"></path>
                            <path d="M87.4518368,40.2793243 L104.310022,40.2793243" id="Shape" stroke="#415FCF" stroke-width="1.54"></path>
                            <path d="M87.4518368,45.2114865 L94.195111,45.2114865" id="Shape" stroke="#415FCF" stroke-width="1.54"></path>
                            <path d="M97.5667481,45.2114865 L109.367478,45.2114865" id="Shape" stroke="#415FCF" stroke-width="1.54"></path>
                        </g>
                    </g>
                </g>
            </g>
        </g>
    </g>
</svg>