<?xml version="1.0" encoding="UTF-8" standalone="no"?>
<svg width="248px" height="146px" viewBox="0 0 248 146" version="1.1" xmlns="http://www.w3.org/2000/svg" xmlns:xlink="http://www.w3.org/1999/xlink" xmlns:sketch="http://www.bohemiancoding.com/sketch/ns">
    <!-- Generator: Sketch 3.1.1 (8761) - http://www.bohemiancoding.com/sketch -->
    <title>flat_line_icon_95 4</title>
    <desc>Created with Sketch.</desc>
    <defs></defs>
    <g id="Page-1" stroke="none" stroke-width="1" fill="none" fill-rule="evenodd" sketch:type="MSPage">
        <g id="Desktop-HD-20" sketch:type="MSArtboardGroup" transform="translate(-353.000000, -2968.000000)">
            <g id="flat_line_icon_95-4" sketch:type="MSLayerGroup" transform="translate(356.674226, 2971.563170)">
                <g id="Layer_3" transform="translate(-0.342084, 0.080881)" sketch:type="MSShapeGroup">
                    <g id="Group">
                        <g transform="translate(40.641109, 0.000000)">
                            <rect id="Rectangle-path" fill="#BFC6CC" x="0" y="20.2741599" width="162.564435" height="121.644959"></rect>
                            <path d="M60.9019714,30.4112398 L60.9019714,0 L101.54308,0 L101.54308,30.4112398" id="Shape" stroke="#BFC6CC" stroke-width="6.32139738"></path>
                        </g>
                        <g transform="translate(0.000000, 70.959560)" id="Shape" stroke="#415FCF" stroke-width="1.54">
                            <path d="M233.626683,0 L223.466406,0 L30.4211399,0 L-0.0596916284,10.1370799 L30.4211399,20.2741599 L223.466406,20.2741599 L233.626683,20.2741599 C239.237696,20.2741599 243.786961,15.7359159 243.786961,10.1370799 C243.786961,4.53824397 239.237696,0 233.626683,0 L233.626683,0 Z"></path>
                            <path d="M223.085714,0 L223.085714,20.2741599"></path>
                            <path d="M213.015873,0 L213.015873,20.2741599"></path>
                            <path d="M30.2095238,0 L30.2095238,20.2741599"></path>
                            <path d="M10.0698413,13.5158954 L10.0698413,6.75826448"></path>
                            <path d="M30.4211399,10.0326087 L213.306129,10.0326087"></path>
                        </g>
                    </g>
                </g>
            </g>
        </g>
    </g>
</svg>