<?xml version="1.0" encoding="UTF-8" standalone="no"?>
<svg width="171px" height="147px" viewBox="0 0 171 147" version="1.1" xmlns="http://www.w3.org/2000/svg" xmlns:xlink="http://www.w3.org/1999/xlink" xmlns:sketch="http://www.bohemiancoding.com/sketch/ns">
    <!-- Generator: Sketch 3.1.1 (8761) - http://www.bohemiancoding.com/sketch -->
    <title>web_image_07</title>
    <desc>Created with Sketch.</desc>
    <defs></defs>
    <g id="Page-1" stroke="none" stroke-width="1" fill="none" fill-rule="evenodd" sketch:type="MSPage">
        <g id="Desktop-HD-20" sketch:type="MSArtboardGroup" transform="translate(-363.000000, -1038.000000)">
            <g id="Group" sketch:type="MSLayerGroup" transform="translate(340.000000, 1039.000000)">
                <g id="web_image" transform="translate(24.590000, -0.086830)" sketch:type="MSShapeGroup">
                    <g id="Layer_11" transform="translate(0.077729, 0.076154)">
                        <g id="Group">
                            <path d="M42.8698107,131.177821 L42.8698107,23.4342308 L49.3407256,6.19525641 L55.8116404,23.4342308 L55.8116404,131.177821" id="Shape" fill="#E9ECEE"></path>
                            <path d="M55.8116404,131.177821 L55.8116404,139.797308 C55.8116404,142.167667 53.8703659,144.107051 51.4976972,144.107051 L47.1837539,144.107051 C44.8110852,144.107051 42.8698107,142.167667 42.8698107,139.797308 L42.8698107,131.177821" id="Shape" fill="#E9ECEE"></path>
                            <rect id="Rectangle-path" fill="#FF0000" x="64.7091483" y="32.3230769" width="25.8836593" height="99.1241026"></rect>
                            <rect id="Rectangle-path" fill="#E9ECEE" x="99.220694" y="114.208205" width="30.1976025" height="30.1682051"></rect>
                            <path d="M98.9510726,105.319359 L129.148675,105.319359 L114.049874,75.1511538 L98.9510726,105.319359 Z" id="Shape" fill="#E9ECEE"></path>
                            <ellipse id="Oval" fill="#E9ECEE" cx="114.319495" cy="51.7169231" rx="15.0988013" ry="15.0841026"></ellipse>
                            <rect id="Rectangle-path" fill="#FF0000" x="138.046183" y="6.46461538" width="30.1976025" height="137.911795"></rect>
                            <g transform="translate(101.377666, 2.154872)" id="Shape" stroke="#415FCF" stroke-width="1.3475">
                                <path d="M25.6140379,1.34679487 L25.6140379,-0.269358974 L23.9963091,-0.269358974"></path>
                                <path d="M20.7608517,-0.269358974 L2.96583596,-0.269358974" stroke-dasharray="6,6"></path>
                                <path d="M1.34810726,-0.269358974 L-0.269621451,-0.269358974 L-0.269621451,1.34679487"></path>
                                <path d="M-0.269621451,4.57910256 L-0.269621451,22.3567949" stroke-dasharray="6,6"></path>
                                <path d="M-0.269621451,23.9729487 L-0.269621451,25.5891026 L1.34810726,25.5891026"></path>
                                <path d="M4.58356467,25.5891026 L22.3785804,25.5891026" stroke-dasharray="6,6"></path>
                                <path d="M23.9963091,25.5891026 L25.6140379,25.5891026 L25.6140379,23.9729487"></path>
                                <path d="M25.6140379,20.740641 L25.6140379,2.96294872" stroke-dasharray="6,6"></path>
                            </g>
                            <path d="M49.28,101.278974 L49.28,122.558333" id="Shape" stroke="#415FCF" stroke-width="1.925"></path>
                            <path d="M42.8698107,131.177821 L42.8698107,23.4342308 L49.3407256,6.19525641 L55.8116404,23.4342308 L55.8116404,131.177821" id="Shape" stroke="#415FCF" stroke-width="1.925"></path>
                            <path d="M55.8116404,23.1 L42.8698107,23.1" id="Shape" stroke="#415FCF" stroke-width="1.925"></path>
                            <path d="M55.8116404,131.177821 L55.8116404,139.797308 C55.8116404,142.167667 53.8703659,144.107051 51.4976972,144.107051 L47.1837539,144.107051 C44.8110852,144.107051 42.8698107,142.167667 42.8698107,139.797308 L42.8698107,131.177821" id="Shape" stroke="#415FCF" stroke-width="1.925"></path>
                            <path d="M90.3231861,131.177821 L90.3231861,139.797308 C90.3231861,142.167667 88.3819117,144.107051 86.0092429,144.107051 L68.75347,144.107051 C66.3808013,144.107051 64.4395268,142.167667 64.4395268,139.797308 L64.4395268,131.177821" id="Shape" stroke="#415FCF" stroke-width="1.925"></path>
                            <rect id="Rectangle-path" stroke="#415FCF" stroke-width="1.925" x="64.7091483" y="32.3230769" width="25.8836593" height="99.1241026"></rect>
                            <path d="M73.0674132,14.8147436 L64.4395268,23.4342308 L64.4395268,32.0537179" id="Shape" stroke="#415FCF" stroke-width="1.925"></path>
                            <path d="M81.6952997,14.8147436 L90.3231861,23.4342308 L90.3231861,32.0537179" id="Shape" stroke="#415FCF" stroke-width="1.925"></path>
                            <path d="M73.0674132,14.63 L81.6952997,14.63" id="Shape" stroke="#415FCF" stroke-width="1.925"></path>
                            <path d="M73.0674132,14.8147436 L73.0674132,10.505 L81.6952997,6.19525641 L81.6952997,14.8147436" id="Shape" stroke="#415FCF" stroke-width="1.925"></path>
                            <path d="M90.3231861,23.1 L64.4395268,23.1" id="Shape" stroke="#415FCF" stroke-width="1.925"></path>
                            <rect id="Rectangle-path" stroke="#415FCF" stroke-width="1.925" fill="#FFFFFF" x="73.3370347" y="40.9425641" width="8.62788644" height="56.0266667"></rect>
                            <ellipse id="Oval" stroke="#415FCF" stroke-width="1.925" fill="#FFFFFF" cx="127.261325" cy="28.0133333" rx="2.15697161" ry="2.15487179"></ellipse>
                            <ellipse id="Oval" stroke="#415FCF" stroke-width="1.925" fill="#FFFFFF" cx="127.261325" cy="2.15487179" rx="2.15697161" ry="2.15487179"></ellipse>
                            <ellipse id="Oval" stroke="#415FCF" stroke-width="1.925" fill="#FFFFFF" cx="101.377666" cy="2.15487179" rx="2.15697161" ry="2.15487179"></ellipse>
                            <ellipse id="Oval" stroke="#415FCF" stroke-width="1.925" fill="#FFFFFF" cx="101.377666" cy="28.0133333" rx="2.15697161" ry="2.15487179"></ellipse>
                            <g transform="translate(107.848580, 8.619487)" id="Shape" stroke="#415FCF" stroke-width="1.925">
                                <path d="M6.16,-0.269358974 L6.16,12.6598718"></path>
                                <path d="M12.6722082,2.24429897 L12.6722082,-0.269358974 L-0.269621451,-0.269358974 L-0.269621451,2.24429897"></path>
                                <path d="M3.68464675,12.32 L8.71794,12.32"></path>
                            </g>
                            <ellipse id="Oval" stroke="#415FCF" stroke-width="1.925" cx="114.319495" cy="51.7169231" rx="15.0988013" ry="15.0841026"></ellipse>
                            <rect id="Rectangle-path" stroke="#415FCF" stroke-width="1.925" x="99.220694" y="114.208205" width="30.1976025" height="30.1682051"></rect>
                            <path d="M98.9510726,105.319359 L129.148675,105.319359 L114.049874,75.1511538 L98.9510726,105.319359 Z" id="Shape" stroke="#415FCF" stroke-width="1.925"></path>
                            <rect id="Rectangle-path" stroke="#FF0000" stroke-width="1.925" x="138.046183" y="6.46461538" width="30.1976025" height="137.911795"></rect>
                            <ellipse id="Oval" stroke="#FFFFFF" stroke-width="1.925" cx="153.144984" cy="135.756923" rx="2.15697161" ry="2.15487179"></ellipse>
                            <g transform="translate(159.615899, 15.084103)" id="Shape" stroke="#FFFFFF" stroke-width="1.925">
                                <path d="M-0.269621451,120.12 L8.35826498,120.12"></path>
                                <path d="M-0.269621451,111.65 L8.35826498,111.65"></path>
                                <path d="M-0.269621451,102.41 L8.35826498,102.41"></path>
                                <path d="M-0.269621451,93.94 L8.35826498,93.94"></path>
                                <path d="M-0.269621451,85.47 L8.35826498,85.47"></path>
                                <path d="M-0.269621451,77 L8.35826498,77"></path>
                                <path d="M-0.269621451,68.53 L8.35826498,68.53"></path>
                                <path d="M-0.269621451,60.06 L8.35826498,60.06"></path>
                                <path d="M-0.269621451,50.82 L8.35826498,50.82"></path>
                                <path d="M-0.269621451,42.35 L8.35826498,42.35"></path>
                                <path d="M-0.269621451,33.88 L8.35826498,33.88"></path>
                                <path d="M-0.269621451,25.41 L8.35826498,25.41"></path>
                                <path d="M-0.269621451,16.94 L8.35826498,16.94"></path>
                                <path d="M-0.269621451,8.47 L8.35826498,8.47"></path>
                                <path d="M-0.269621451,0 L8.35826498,0"></path>
                            </g>
                            <path d="M34.2419243,96.6998718 C34.2419243,89.5887949 28.4181009,83.770641 21.3000946,83.770641 L12.6722082,83.770641 C5.55420189,83.770641 -0.269621451,89.5887949 -0.269621451,96.6998718 L-0.269621451,131.177821 C-0.269621451,138.288897 5.55420189,144.107051 12.6722082,144.107051 L21.3000946,144.107051 C28.4181009,144.107051 34.2419243,138.288897 34.2419243,131.177821 L34.2419243,96.6998718 L34.2419243,96.6998718 Z" id="Shape" stroke="#415FCF" stroke-width="1.925"></path>
                            <ellipse id="Oval" stroke="#415FCF" stroke-width="1.925" cx="17.2557729" cy="101.278974" rx="4.31394322" ry="4.30974359"></ellipse>
                            <path d="M16.94,83.770641 L16.94,72.9962821" id="Shape" stroke="#415FCF" stroke-width="1.925"></path>
                            <path d="M16.9861514,72.9962821 C16.9861514,68.2318605 13.1273292,64.3767949 8.35826498,64.3767949" id="Shape" stroke="#415FCF" stroke-width="1.925"></path>
                            <path d="M-0.269621451,55.7573077 C-0.269621451,60.5217292 3.58920076,64.3767949 8.35826498,64.3767949" id="Shape" stroke="#415FCF" stroke-width="1.925"></path>
                            <path d="M0,55.7573077 L0,47.1378205" id="Shape" stroke="#415FCF" stroke-width="1.925"></path>
                            <path d="M-0.269621451,47.1378205 C-0.269621451,42.373399 3.58920076,38.5183333 8.35826498,38.5183333" id="Shape" stroke="#415FCF" stroke-width="1.925"></path>
                            <path d="M16.9861514,29.8988462 C16.9861514,34.6632677 13.1273292,38.5183333 8.35826498,38.5183333" id="Shape" stroke="#415FCF" stroke-width="1.925"></path>
                            <path d="M16.94,29.8988462 L16.94,6.19525641" id="Shape" stroke="#415FCF" stroke-width="1.925"></path>
                        </g>
                    </g>
                </g>
            </g>
        </g>
    </g>
</svg>